<svg width="32" height="32" xmlns="http://www.w3.org/2000/svg">

 <g>
  <title>background</title>
  <rect fill="none" id="canvas_background" height="402" width="582" y="-1" x="-1"/>
 </g>
 <g>
  <title>Layer 1</title>
  <path id="svg_1" fill="#333333" d="m32,8c0,-1.406 -0.957,-2.608 -2.326,-2.924l-13.013,-3.003c-0.218,-0.049 -0.44,-0.073 -0.661,-0.073c-0.221,0 -0.443,0.024 -0.675,0.076l-12.999,3c-1.37,0.316 -2.326,1.518 -2.326,2.924s0.957,2.608 2.325,2.924l2.675,0.617l0,8.459c0,2.654 3.038,5 11,5s11,-2.346 11,-5l0,-8.459l2.674,-0.617c1.369,-0.316 2.326,-1.518 2.326,-2.924zm-7,12c0,1.105 -3,3 -9,3c-6,0 -9,-1.895 -9,-3l0,-7.997l8.338,1.924c0.218,0.049 0.441,0.073 0.662,0.073c0.221,0 0.444,-0.024 0.674,-0.076l8.326,-1.921l0,7.997zm-8.775,-8.025c-0.075,0.016 -0.15,0.025 -0.225,0.025s-0.151,-0.009 -0.225,-0.025l-13,-3c-0.454,-0.105 -0.775,-0.509 -0.775,-0.975s0.321,-0.87 0.775,-0.975l13,-3c0.074,-0.016 0.149,-0.025 0.225,-0.025s0.151,0.009 0.225,0.025l13,3c0.453,0.105 0.775,0.509 0.775,0.975s-0.322,0.87 -0.775,0.975l-13,3z"/>
  <path id="svg_2" fill="#333333" d="m1.399361,13.537358l0,9c0,0.553 0.447,1 1,1c0.552,0 1,-0.447 1,-1l0,-9c0,-0.553 -0.448,-1 -1,-1c-0.553,0 -1,0.447 -1,1z"/>
  <path id="svg_3" fill="#333333" d="m2.350512,23.706896c-1.105,0 -2,2.896 -2,4s0.895,2 2,2c1.104,0 2,-0.896 2,-2s-0.896,-4 -2,-4z"/>
  <line stroke-linecap="null" stroke-linejoin="null" id="svg_14" y2="5.89899" x2="8.5" y1="3.525253" x1="16.025253" fill-opacity="null" stroke-opacity="null" stroke-width="null" stroke="null" fill="none"/>
  <line stroke-linecap="null" stroke-linejoin="null" id="svg_15" y2="8.575758" x2="21.227273" y1="8.727273" x1="13.39899" fill-opacity="null" stroke-opacity="null" stroke-width="null" stroke="null" fill="none"/>
  <path id="svg_18" d="m15.722222,2.212121c-0.050505,0 -14.646465,4.191919 -14.661616,4.151515c0.015151,0.040404 0.217171,3.222223 0.20202,3.181818c0.015151,0.040405 15.015152,3.626263 15,3.585859c0.015152,0.040405 14.914142,-4 14.89899,-4.040404c0.015152,0.040405 -0.489898,-2.838383 -0.505051,-2.878788c0.015152,0.040404 -14.883838,-4 -14.934343,-4z" fill-opacity="null" stroke-opacity="null" stroke-width="null" stroke="null" fill="#333333"/>
 </g>
</svg>